<svg width="612" height="529" viewBox="0 0 612 529" fill="none" xmlns="http://www.w3.org/2000/svg">
<path d="M526.981 202.752C526.981 105.55 448.183 26.7521 350.981 26.7521H186.531C113.933 26.7521 55.0807 85.6043 55.0807 158.202V158.202C55.0807 230.8 113.933 289.652 186.531 289.652H526.981V202.752Z" fill="#FEEBD2"/>
<path d="M370.304 72.6C370.304 36.7567 399.361 7.70001 435.204 7.70001H476.454C494.376 7.70001 508.904 22.2284 508.904 40.15V40.15C508.904 58.0717 494.376 72.6 476.454 72.6H370.304V72.6Z" stroke="#18233D" stroke-width="0.88" stroke-linecap="round"/>
<ellipse cx="411.684" cy="40.15" rx="6.18026" ry="6.05" fill="#18233D"/>
<ellipse cx="439.054" cy="40.15" rx="6.18026" ry="6.05" fill="#18233D"/>
<ellipse cx="466.424" cy="40.15" rx="6.18026" ry="6.05" fill="#18233D"/>
<path d="M55.0806 505.166H598.004" stroke="#18233D" stroke-width="1.1" stroke-linecap="round"/>
<rect x="241.054" y="63.25" width="113.3" height="138.6" rx="6.05" fill="white" stroke="#18233D" stroke-width="1.1" stroke-linecap="round"/>
<path d="M261.501 85.0376H326.636" stroke="#18233D" stroke-width="0.88" stroke-linecap="round"/>
<path d="M261.501 96.0376H293.636" stroke="#18233D" stroke-width="0.88" stroke-linecap="round"/>
<path d="M261.501 107.038H315.636" stroke="#18233D" stroke-width="0.88" stroke-linecap="round"/>
<path d="M261.501 118.038H282.636" stroke="#18233D" stroke-width="0.88" stroke-linecap="round"/>
<path d="M261.501 129.038H304.636" stroke="#18233D" stroke-width="0.88" stroke-linecap="round"/>
<path fill-rule="evenodd" clip-rule="evenodd" d="M432.167 479.6L429.638 487.402L407.704 502.7H429.651C437.646 502.7 444.491 496.968 445.894 489.097L447.304 481.192" fill="#FEBE89"/>
<path fill-rule="evenodd" clip-rule="evenodd" d="M447.232 488.949L439.62 490.16C435.118 490.877 430.544 489.406 427.304 486.2V486.2L401.104 503.24V503.24C402.439 505.999 405.453 507.527 408.468 506.973L432.459 502.562V506.657H441.911V506.657C445.735 501.763 447.639 495.64 447.262 489.44L447.232 488.949Z" fill="#18233D"/>
<path fill-rule="evenodd" clip-rule="evenodd" d="M471.187 202.4V202.4C466.754 206.444 463.906 211.935 463.155 217.888L429.704 482.9H452.01L517.704 202.406L471.187 202.4Z" fill="#85A9FF"/>
<path opacity="0.218797" fill-rule="evenodd" clip-rule="evenodd" d="M494.22 225.5L451.704 482.9L508.904 242.839L494.22 225.5Z" fill="#4873DB"/>
<path d="M499.004 259.6L477.597 334.481L448.404 482.9" stroke="white" stroke-width="1.1"/>
<path fill-rule="evenodd" clip-rule="evenodd" d="M566.044 482.142L569.106 489.967L561.833 516.059L579.028 502.135C585.258 497.091 586.96 488.298 583.064 481.293L578.911 473.825" fill="#FEBE89"/>
<path fill-rule="evenodd" clip-rule="evenodd" d="M584.647 480.596L579.489 486.33C576.443 489.716 571.968 491.451 567.436 491.002V491.002L557.783 520.707V520.707C560.555 522.007 563.854 521.298 565.846 518.974L581.72 500.453L584.292 503.63L591.636 497.682V497.682C591.534 491.48 589.164 485.529 584.975 480.954L584.647 480.596Z" fill="#18233D"/>
<path fill-rule="evenodd" clip-rule="evenodd" d="M486.904 203.541L510.68 338.86C511.985 346.29 514.051 353.566 516.846 360.573L565.631 482.9L587.004 475.833L549.705 333.013L546.769 242.426C546.309 228.249 542.121 214.443 534.628 202.4V202.4L486.904 203.541Z" fill="#85A9FF"/>
<path d="M528.704 205.7L536.67 231.83C538.603 238.172 539.586 244.766 539.586 251.396V337.585L585.904 475.2" stroke="white" stroke-width="1.1" stroke-linecap="round"/>
<path fill-rule="evenodd" clip-rule="evenodd" d="M465.301 211.914C463.469 211.881 462.24 225.5 462.24 225.5L525.159 222.224C531.295 221.904 536.996 218.957 540.804 214.136V214.136L536.569 205.7C536.569 205.7 480.808 207.783 465.301 211.914Z" fill="#4873DB"/>
<path fill-rule="evenodd" clip-rule="evenodd" d="M412.671 184.737L344.339 161.568L319.563 156.443C318.523 156.228 317.504 156.89 317.278 157.927V157.927C317.065 158.904 317.631 159.882 318.583 160.185L331.681 164.353C331.681 164.353 329.081 165.98 329.081 167.478C329.081 168.976 327.301 171.007 327.574 172.669C327.847 174.332 328.244 176.168 328.662 179.216C329.003 181.702 336.281 183.804 338.959 184.495C339.544 184.647 340.152 184.395 340.475 183.884V183.884C340.826 183.329 340.752 182.607 340.297 182.134L339.562 181.37C339.562 181.37 346.601 183.541 352.13 180.062L401.101 206.396C413.28 212.946 428.436 209.3 436.304 197.928V197.928L422.487 182.594L412.671 184.737Z" fill="#FFD1AB"/>
<path fill-rule="evenodd" clip-rule="evenodd" d="M433.27 199.875L403.74 181.843L414.875 184.401L433.27 199.875Z" fill="#CF8B54"/>
<path d="M328.292 169.117L342.057 177.161C342.057 177.161 344.111 179.05 343.336 180.688C342.562 182.325 340.185 181.339 340.185 181.339" stroke="white" stroke-width="1.1" stroke-linecap="round"/>
<path d="M330.84 164.027L343.427 172.372C343.427 172.372 344.901 173.96 344.213 175.598C343.524 177.235 341.323 176.551 341.323 176.551" stroke="white" stroke-width="1.1" stroke-linecap="round"/>
<path fill-rule="evenodd" clip-rule="evenodd" d="M346.498 164.876H337.75C337.005 164.876 336.334 165.325 336.05 166.013L332.714 174.089C332.33 175.02 332.72 176.09 333.613 176.556V176.556C334.452 176.993 335.485 176.762 336.058 176.009L340.546 170.117C340.546 170.117 344.98 174.154 349.529 175.734" fill="#FFD1AB"/>
<path d="M346.498 164.876H337.75C337.005 164.876 336.334 165.325 336.05 166.013L332.714 174.089C332.33 175.02 332.72 176.09 333.613 176.556V176.556C334.452 176.993 335.485 176.762 336.058 176.009L340.546 170.117C340.546 170.117 344.98 174.154 349.529 175.734" stroke="white" stroke-width="1.1" stroke-linecap="round"/>
<path d="M328.769 175.55L339.727 181.156" stroke="white" stroke-width="1.1" stroke-linecap="round"/>
<path fill-rule="evenodd" clip-rule="evenodd" d="M488.063 115.255C488.063 115.255 470.21 118.722 459.618 122.442C449.027 126.162 422.004 172.306 422.004 172.306L441.223 190.793L453.183 176.07C453.183 176.07 454.551 208.351 467.354 214.5H535.539C543.302 209.176 550.489 163.119 550.489 163.119L568.01 175.845L579.304 145.34C579.304 145.34 552.139 123.173 546.918 122.442C541.697 121.71 501.8 112.2 501.8 112.2L488.063 115.255Z" fill="#18233D"/>
<path d="M492.698 122.704L492.501 122.72L492.359 122.857L481.954 132.904V116.525L490.107 112.75H509.363L518.629 116.56L520.32 130.513L506.211 121.746L506.057 121.65L505.877 121.665L492.698 122.704Z" stroke="white" stroke-width="1.1" stroke-linecap="round"/>
<rect x="496.254" y="119.35" width="6.6" height="28.6" stroke="white" stroke-width="1.1" stroke-linecap="round"/>
<path fill-rule="evenodd" clip-rule="evenodd" d="M423.716 172.508C420.666 170.714 418.447 174.924 415.974 179.215C413.501 183.507 411.474 183.68 415.948 186.456C420.422 189.232 436.254 204.008 438.616 201.708C440.977 199.408 440.448 192.886 442.428 192.391C444.408 191.895 447.347 190.56 442.91 185.867C438.473 181.174 426.766 174.303 423.716 172.508Z" fill="#85A9FF"/>
<path fill-rule="evenodd" clip-rule="evenodd" d="M563.628 173.456C563.628 173.456 572.548 187.408 586.142 185.717C599.736 184.026 600.517 155.063 594.16 149.656C587.802 144.25 578.036 135.367 568.114 142.151C558.192 148.935 563.628 173.456 563.628 173.456Z" fill="#85A9FF"/>
<path fill-rule="evenodd" clip-rule="evenodd" d="M595.701 160.85C594.62 171.135 590.974 183.781 580.424 182.672C569.874 181.564 566.311 162.603 571.464 140.005C576.618 117.407 585.646 80.6427 585.646 80.6427L585.42 80.3128C581.02 73.9051 577.9 66.7073 576.233 59.1155V59.1155L573.724 53.9945C573.335 53.2001 573.602 52.2402 574.345 51.7607V51.7607C574.957 51.366 575.75 51.3929 576.334 51.8283L579.23 53.9881C580.01 54.5692 580.658 55.3073 581.134 56.1548L584.573 62.274L584.558 38.6536C584.557 37.6038 585.354 36.7253 586.399 36.6244V36.6244C587.508 36.5172 588.498 37.3212 588.62 38.4289L590.48 55.2883L593.959 35.7362C594.159 34.6165 595.189 33.8411 596.32 33.96V33.96C597.464 34.0802 598.315 35.073 598.259 36.222L597.291 56.0041L602.985 41.3281C603.385 40.2979 604.526 39.7664 605.572 40.1235V40.1235C606.626 40.4833 607.206 41.6073 606.881 42.6721C605.451 47.36 601.917 59.0472 602.371 58.4957C602.797 57.9796 605.41 53.1687 606.696 50.7856C607.104 50.029 608.01 49.6923 608.813 50.0007V50.0007C609.675 50.3321 610.116 51.2896 609.808 52.1603L603.584 69.7634L600.456 81.4386C600.456 81.4386 596.782 150.564 595.701 160.85Z" fill="#FFD1AB"/>
<path d="M585.022 61.2473C585.022 61.2473 594.959 67.7401 594.508 72.0327" stroke="white" stroke-width="1.1" stroke-linecap="round"/>
<path d="M603.866 58.7788C603.866 58.7788 597.922 54.4009 588.342 54.9174" stroke="white" stroke-width="1.1" stroke-linecap="round"/>
<path fill-rule="evenodd" clip-rule="evenodd" d="M487.104 81.7943C487.104 81.7943 489.772 92.0359 488.438 102.172C487.104 112.307 487.104 116.236 484.947 117.856C484.947 117.856 493.06 126.784 501.099 126.784C509.137 126.784 516.533 117.856 516.533 117.856C516.533 117.856 511.783 115.681 511.783 104.133C511.783 92.586 512.43 78.5327 512.43 78.5327L487.104 81.7943Z" fill="#FFD1AB"/>
<path fill-rule="evenodd" clip-rule="evenodd" d="M483.73 80.131C478.176 71.3659 476.452 54.8383 488.546 51.1963C489.367 38.7352 516.889 44.1214 520.391 57.3992C523.892 70.6769 516.688 89.4766 506.552 91.7279C496.416 93.9791 489.284 88.8961 483.73 80.131Z" fill="#18233D"/>
<path fill-rule="evenodd" clip-rule="evenodd" d="M512.409 86.7483C512.202 88.429 511.52 96.4473 511.737 104.556C511.81 107.313 512.409 110.98 512.409 110.98C512.409 110.98 490.734 100.588 488.891 96.3651C488.975 93.4399 488.811 90.6283 488.546 88.2335L512.409 86.7483Z" fill="#CF8B54"/>
<path fill-rule="evenodd" clip-rule="evenodd" d="M486.781 69.8218C490.101 67.8525 491.048 63.9744 493.266 57.3991C499 66.7072 504.463 67.4924 513.837 69.8053C513.228 86.6574 514.893 71.4034 516.593 71.5919C516.939 71.4851 517.306 71.4278 517.685 71.4278C519.824 71.4278 521.558 73.2498 521.558 75.4973C521.558 77.7447 519.824 79.5667 517.685 79.5667C516.688 79.5667 515.778 79.1706 515.092 78.52C511.954 88.0613 505.355 100.307 497.943 99.1615C492.585 98.3332 488.38 91.3586 485.328 78.2377C485.066 78.297 484.793 78.3282 484.513 78.3282C482.374 78.3282 480.64 76.5062 480.64 74.2587C480.64 72.0113 482.374 70.1893 484.513 70.1893C484.664 70.1893 484.631 76.7343 485.328 76.4828C486.026 76.2312 486.781 69.8218 486.781 69.8218Z" fill="#FFD1AB"/>
<path d="M498.807 73.171C499.567 76.1158 496.655 83.9276 496.655 83.9276L499.714 85.0376" stroke="#18233D" stroke-width="1.1" stroke-linecap="round"/>
<path d="M503.116 69.8536C503.116 69.8536 506.502 68.1982 509.987 70.4851" stroke="#18233D" stroke-width="1.1" stroke-linecap="round"/>
<path d="M489.276 70.205C489.276 70.205 492.474 68.1969 496.174 70.0987" stroke="#18233D" stroke-width="1.1" stroke-linecap="round"/>
<ellipse cx="505.077" cy="73.1799" rx="1.07679" ry="1.10098" fill="#18233D"/>
<ellipse cx="492.155" cy="73.1799" rx="1.07679" ry="1.10098" fill="#18233D"/>
<path fill-rule="evenodd" clip-rule="evenodd" d="M495.715 88.0004L502.285 87.4926C502.285 87.4926 501.352 90.8716 499 90.8716C496.648 90.8716 495.715 88.0004 495.715 88.0004Z" fill="white"/>
<path d="M516.533 76.4828L518.686 75.7488" stroke="#18233D" stroke-width="1.1" stroke-linecap="round"/>
<path d="M484.947 75.0148L482.793 74.2808" stroke="#18233D" stroke-width="1.1" stroke-linecap="round"/>
<path d="M497.151 55.1972C497.151 55.1972 502.864 65.3383 515.097 67.675" stroke="white" stroke-width="1.1" stroke-linecap="round"/>
<path fill-rule="evenodd" clip-rule="evenodd" d="M211.828 229.073L265.827 190.386C265.827 190.386 270.609 185.314 276.823 181.388C279.177 179.901 285.805 179.974 285.805 179.974L295.212 177.136C295.681 176.994 296.188 177.178 296.456 177.589V177.589C296.827 178.155 296.606 178.919 295.99 179.199L285.805 183.842L294.778 181.388L302.599 180.141C303.231 180.04 303.861 180.33 304.196 180.876V180.876C304.73 181.75 304.306 182.893 303.331 183.206L296.004 185.557L289.484 187.649L299.436 185.993L307.541 183.201C308.521 182.864 309.59 183.379 309.935 184.357V184.357C310.263 185.282 309.827 186.304 308.932 186.707L300.782 190.386L275.108 197.677C275.108 197.677 237.89 236.144 226.15 245.932L211.828 229.073Z" fill="#FFB391"/>
<path fill-rule="evenodd" clip-rule="evenodd" d="M171.589 159.58C171.589 159.58 187.335 169.358 198.051 197.732C208.766 226.106 210.357 231.164 210.357 231.164L218.234 224.314L233.308 244.89C233.308 244.89 205.632 258.555 198.167 252.08C187.701 243 181.999 229.282 172.825 206.552C168.28 195.29 164.534 187.515 163.349 180.611C160.213 162.336 171.589 159.58 171.589 159.58Z" fill="#779CF7"/>
<path fill-rule="evenodd" clip-rule="evenodd" d="M146.499 379.76V379.76C134.935 395.492 128.192 414.246 127.09 433.74L126.77 439.41C126.384 446.231 125.364 453 123.723 459.632L115.671 492.167L113.217 496.614C110.539 501.468 112.962 507.559 118.242 509.247L146.204 518.188L137.058 510.175C130.35 504.298 128.111 494.811 131.482 486.555L170.531 390.931L146.499 379.76Z" fill="#FFB391"/>
<path fill-rule="evenodd" clip-rule="evenodd" d="M170.685 389.948L141.517 384.561C141.366 385.065 141.219 385.57 141.076 386.077L163.645 407.188L164.09 406.098L142.445 385.851L170.26 390.988L170.685 389.948Z" fill="#CF8B54"/>
<path fill-rule="evenodd" clip-rule="evenodd" d="M113.861 494.971L127.893 505.868C129.73 507.294 132.141 505.029 130.832 503.106V503.106L140.402 512.261L146.203 518.188V518.188C144.808 520.994 141.315 522.011 138.632 520.392L121.721 510.185L120.497 513.381L112.865 510.444V510.444C110.09 505.579 110.512 499.462 113.861 494.971V494.971Z" fill="#18233D"/>
<path fill-rule="evenodd" clip-rule="evenodd" d="M178.361 385.424V385.424C174.864 404.633 177.024 424.445 184.579 442.448L186.777 447.686C189.421 453.985 191.472 460.516 192.903 467.196L199.928 499.968L199.673 505.041C199.393 510.578 204.241 514.99 209.727 514.193L238.778 509.972L227.046 506.779C218.44 504.437 212.269 496.892 211.68 487.993L204.857 384.929L178.361 385.424Z" fill="#FFB391"/>
<path fill-rule="evenodd" clip-rule="evenodd" d="M204.141 384.23L175.564 392.175C175.649 392.694 175.738 393.213 175.831 393.73L205.371 402.812L205.293 401.637L176.963 392.928L204.215 385.351L204.141 384.23Z" fill="#CF8B54"/>
<path fill-rule="evenodd" clip-rule="evenodd" d="M199.531 503.282L216.92 506.925C219.197 507.402 220.371 504.308 218.351 503.154V503.154L230.965 507.188L238.778 509.972V509.972C238.754 513.105 236.06 515.55 232.939 515.271L213.265 513.511L213.566 516.919L205.419 517.626V517.626C200.792 514.469 198.49 508.786 199.531 503.282V503.282Z" fill="#18233D"/>
<path fill-rule="evenodd" clip-rule="evenodd" d="M128.52 252.337C128.52 252.337 116.498 264.239 122.155 313.388C127.813 362.536 131.215 390.649 131.215 390.649C131.215 390.649 147.098 395.981 160.234 395.981C173.37 395.981 206.954 390.649 206.954 390.649L201.238 278.384C200.754 268.876 198.585 259.53 194.832 250.781V250.781L128.52 252.337Z" fill="#18233D"/>
<path fill-rule="evenodd" clip-rule="evenodd" d="M141.809 158.451C141.809 158.451 110.193 170.356 110.193 182.745C110.193 195.134 126.001 228.772 126.001 228.772C126.001 228.772 122.165 255.265 122.165 260.354C122.165 265.443 174.044 269.03 192.157 256.319C200.084 251.453 189.203 227.603 189.203 211.732C195.433 204.43 194.933 197.165 184.335 178.338C180.017 170.669 176.451 161.729 170.328 158.482C166.429 156.416 155.88 158.451 155.88 158.451H141.809Z" fill="#85A9FF"/>
<path fill-rule="evenodd" clip-rule="evenodd" d="M140.749 158.065L133.738 161L147.425 183.184L156.784 166.67C156.784 166.67 173.484 172.394 173.484 172.394C173.484 172.394 165.281 156.214 165.281 156.214L140.749 158.065Z" stroke="white" stroke-width="1.1" stroke-linecap="round"/>
<path fill-rule="evenodd" clip-rule="evenodd" d="M119.182 152.213C119.182 152.213 118.481 102.353 129.868 91.4991C141.255 80.6454 160.356 87.8419 160.356 87.8419C160.356 87.8419 167.772 87.1418 171.085 91.2697C174.399 95.3975 175.062 103.995 166.198 109.15C161.627 111.807 166.747 136.291 171.085 150.794C167.226 155.547 119.182 152.213 119.182 152.213Z" fill="#18233D"/>
<path fill-rule="evenodd" clip-rule="evenodd" d="M142.011 124.377C142.011 124.377 146.22 155.054 134.899 161.034L163.369 172.394L166.186 158.451C161.496 148.385 158.972 126.905 158.972 126.905L142.011 124.377Z" fill="#FFB391"/>
<path fill-rule="evenodd" clip-rule="evenodd" d="M143.124 124.115L142.017 124.376C144.795 129.676 150.194 134.187 155.122 137.486C157.203 138.878 159.216 140.066 160.942 141.016L160.752 139.651C159.22 138.788 157.501 137.754 155.734 136.571C150.9 133.336 145.799 129.041 143.124 124.115ZM158.202 121.38C157.871 121.208 157.502 121.019 157.102 120.818L158.091 120.585L158.202 121.38Z" fill="#CF8B54"/>
<path fill-rule="evenodd" clip-rule="evenodd" d="M171.682 101.267C171.682 101.267 179.671 131.498 170.373 136.077C161.075 140.656 143.8 127.124 141.741 125.213C141.741 125.213 135.074 127.492 132.601 123.726C130.128 119.96 130.458 115.471 137.802 115.471C145.145 115.471 161.077 107.385 162.695 97.2329C168.314 94.8015 171.682 101.267 171.682 101.267Z" fill="#FFB391"/>
<path d="M169.853 105.417C169.853 105.417 164.389 106.823 167.944 112.766C170.431 116.62 172.851 120.585 172.851 120.585H169.183" stroke="#18233D" stroke-width="1.1" stroke-linecap="round"/>
<path d="M133.738 120.585L140.047 121.849" stroke="#18233D" stroke-width="1.1" stroke-linecap="round"/>
<path d="M153.644 109.961C153.644 109.961 157.055 106.884 160.094 107.54" stroke="#18233D" stroke-width="1.1" stroke-linecap="round"/>
<ellipse cx="160.234" cy="111.737" rx="1.2617" ry="1.26404" fill="#18233D"/>
<ellipse cx="170.327" cy="109.209" rx="1.2617" ry="1.26404" fill="#18233D"/>
<path fill-rule="evenodd" clip-rule="evenodd" d="M165.281 125.641H171.589C171.589 125.641 171.42 128.169 168.897 128.169C166.375 128.169 165.281 125.641 165.281 125.641Z" fill="white"/>
<path fill-rule="evenodd" clip-rule="evenodd" d="M190.926 225.447C189.184 224.88 187.416 224.306 185.644 223.732C177.799 221.191 169.879 218.649 163.771 216.742C160.718 215.789 158.115 214.994 156.2 214.437C155.243 214.158 154.454 213.938 153.865 213.787C153.571 213.711 153.321 213.652 153.124 213.611C152.942 213.573 152.759 213.541 152.621 213.541C152.371 213.541 151.618 213.46 150.433 213.303C149.27 213.15 147.734 212.93 145.954 212.665C142.396 212.136 137.871 211.431 133.418 210.726C128.966 210.02 124.587 209.315 121.322 208.785C119.689 208.521 118.334 208.3 117.388 208.146L117.199 208.115C117.354 208.514 117.508 208.911 117.663 209.306C118.57 209.453 119.757 209.646 121.146 209.871C124.412 210.401 128.792 211.106 133.246 211.812C137.7 212.518 142.229 213.224 145.793 213.753C147.574 214.018 149.117 214.239 150.289 214.394C151.441 214.546 152.281 214.641 152.621 214.641C152.62 214.641 152.62 214.641 152.621 214.641C152.626 214.641 152.648 214.643 152.693 214.65C152.745 214.658 152.814 214.67 152.901 214.688C153.074 214.724 153.305 214.779 153.592 214.852C154.164 214.999 154.94 215.215 155.892 215.493C157.797 216.047 160.392 216.84 163.443 217.792C169.545 219.697 177.461 222.238 185.305 224.779C187.278 225.418 189.247 226.057 191.181 226.686C191.095 226.273 191.01 225.86 190.926 225.447ZM195.037 248.078C189.749 249.957 183.368 251.397 175.79 251.844C168.664 252.265 161.385 249.785 154.447 245.775C147.512 241.767 140.958 236.254 135.294 230.672C129.633 225.092 124.875 219.456 121.531 215.214C120.257 213.597 119.189 212.183 118.355 211.053C118.894 212.402 119.431 213.719 119.957 214.987C120.186 215.282 120.423 215.585 120.668 215.895C124.03 220.161 128.818 225.834 134.522 231.456C140.223 237.075 146.852 242.656 153.897 246.727C160.938 250.796 168.434 253.38 175.855 252.942C183.371 252.499 189.736 251.091 195.046 249.241C195.052 248.863 195.049 248.475 195.037 248.078Z" fill="#58627A"/>
<path fill-rule="evenodd" clip-rule="evenodd" d="M194.832 208.171L239.502 168.45L253.219 148.642L263.59 136.598C264.397 135.662 265.808 135.553 266.748 136.356V136.356C267.589 137.074 267.781 138.298 267.201 139.24L257.548 154.89C257.548 154.89 262.815 153.765 263.374 158.825C263.933 163.884 266.699 161.659 266.699 166.044C266.699 170.429 267.779 171.693 265.048 173.473C262.317 175.253 250.756 180.821 250.756 180.821L212.283 223.493L194.832 208.171Z" fill="#FFB391"/>
<path fill-rule="evenodd" clip-rule="evenodd" d="M110.192 179.751C106.309 187.481 105.713 210.933 147.447 235.572C189.181 260.21 218.234 219.706 218.234 219.706L197.668 203.317L178.821 219.706C178.821 219.706 152.933 199.501 139.927 188.883C126.921 178.266 114.075 172.022 110.192 179.751Z" fill="#85A9FF"/>
<path d="M185.076 213.106L173.484 220.671L171.856 229.18" stroke="white" stroke-width="1.1" stroke-linecap="round"/>
<path d="M173.484 221.143C171.166 218.995 128.52 183.184 128.52 183.184" stroke="white" stroke-width="1.1" stroke-linecap="round"/>
<path d="M408.927 257.825H408.377V257.275V247.462H401.501L393.835 257.606L393.67 257.825H393.396H360.634C346.627 257.825 335.271 269.18 335.271 283.187C335.271 297.195 346.627 308.55 360.634 308.55H414.791C428.799 308.55 440.154 297.195 440.154 283.187C440.154 269.18 428.799 257.825 414.791 257.825H408.927Z" fill="white" stroke="#18233D" stroke-width="1.1" stroke-linecap="round"/>
<path fill-rule="evenodd" clip-rule="evenodd" d="M327.021 283.187C327.021 297.498 338.623 309.1 352.934 309.1H407.091C421.403 309.1 433.004 297.498 433.004 283.187V283.187C433.004 268.876 421.403 257.275 407.091 257.275H401.227V246.912L385.696 257.275H352.934C338.623 257.275 327.021 268.876 327.021 283.187V283.187Z" fill="#0ACC94"/>
<path d="M406.698 291.751H352.844" stroke="white" stroke-width="1.1" stroke-linecap="round"/>
<path d="M406.698 284.051H374.844" stroke="white" stroke-width="1.1" stroke-linecap="round"/>
<path d="M406.698 276.351H363.844" stroke="white" stroke-width="1.1" stroke-linecap="round"/>
<path d="M136.51 51.2754H135.424L136.067 52.1509L143.03 61.6379H136.677L121.284 51.3679L121.146 51.2754H120.979H88.2169C74.2095 51.2754 62.8542 39.9202 62.8542 25.9127C62.8542 11.9053 74.2095 0.55 88.2169 0.55H142.374C156.382 0.55 167.737 11.9053 167.737 25.9127C167.737 39.9202 156.382 51.2754 142.374 51.2754H136.51Z" fill="white" stroke="#18233D" stroke-width="1.1" stroke-linecap="round"/>
<path d="M144.21 51.2754H143.66V51.8254V61.1597L128.984 51.3679L128.845 51.2754H128.679H95.9169C81.9094 51.2754 70.5542 39.9202 70.5542 25.9127C70.5542 11.9053 81.9094 0.55 95.9169 0.55H150.074C164.081 0.55 175.437 11.9053 175.437 25.9127C175.437 39.9202 164.081 51.2754 150.074 51.2754H144.21Z" fill="white" stroke="#18233D" stroke-width="1.1" stroke-linecap="round"/>
<path d="M91.5601 16.7284H145.414" stroke="#18233D" stroke-width="1.1" stroke-linecap="round"/>
<path d="M91.5601 24.4284H123.414" stroke="#18233D" stroke-width="1.1" stroke-linecap="round"/>
<path d="M91.5601 32.1284H134.414" stroke="#18233D" stroke-width="1.1" stroke-linecap="round"/>
<ellipse cx="11.4349" cy="18.6828" rx="11.4349" ry="18.6828" transform="matrix(-0.97437 -0.224951 -0.224951 0.97437 77.2253 188.205)" fill="#E5E9F3"/>
<path d="M66.49 185.984L52.5251 240.963L77.1978 504.487" stroke="#18233D" stroke-width="1.1" stroke-linecap="round"/>
<path fill-rule="evenodd" clip-rule="evenodd" d="M90.2381 506.266L94.1731 480.115H52.525L61.8806 506.266H90.2381Z" fill="#58627A"/>
<ellipse cx="16.9115" cy="27.569" rx="16.9115" ry="27.569" transform="matrix(-0.87462 0.48481 0.48481 0.87462 29.5823 210.64)" fill="#E5E9F3"/>
<path d="M56.231 288.529L13.3122 220.529" stroke="#18233D" stroke-width="1.1" stroke-linecap="round"/>
<ellipse cx="16.8972" cy="27.5921" rx="16.8972" ry="27.5921" transform="matrix(-0.951057 -0.309017 -0.309017 0.951057 118.77 361.219)" fill="#E5E9F3"/>
<ellipse cx="16.8904" cy="27.603" rx="16.8904" ry="27.603" transform="matrix(-0.984808 -0.173648 -0.173648 0.984808 90.2693 261.997)" fill="#E5E9F3"/>
<ellipse cx="16.9043" cy="27.5805" rx="16.9043" ry="27.5805" transform="matrix(-0.913545 0.406737 0.406737 0.913545 44.126 330.96)" fill="#E5E9F3"/>
<path d="M73.6074 259.059L61.8807 341.296" stroke="#18233D" stroke-width="1.1" stroke-linecap="round"/>
<path d="M68.8423 417.433L28.1569 338.967" stroke="#18233D" stroke-width="1.1" stroke-linecap="round"/>
<path d="M73.6076 461.752L102.653 357.681" stroke="#18233D" stroke-width="1.1" stroke-linecap="round"/>
</svg>
